<?xml version="1.0" standalone="no"?>
<!DOCTYPE svg PUBLIC "-//W3C//DTD SVG 1.1//EN" "http://www.w3.org/Graphics/SVG/1.1/DTD/svg11.dtd" >
<svg xmlns="http://www.w3.org/2000/svg">
<metadata>Generated by IcoMoon</metadata>
<defs>
<font id="icomoon" horiz-adv-x="1024">
<font-face units-per-em="1024" ascent="960" descent="-64" />
<missing-glyph horiz-adv-x="1024" />
<glyph unicode="&#x20;" horiz-adv-x="512" d="" />
<glyph unicode="&#xe900;" glyph-name="ic_close" d="M512 462.223l-177.778 177.778-35.556-35.556 177.778-177.778-177.778-177.778 35.556-35.556 177.778 177.778 177.778-177.778 35.556 35.556-177.778 177.778 177.778 177.778-35.556 35.556-177.778-177.778z" />
<glyph unicode="&#xe901;" glyph-name="ic_column_edit" d="M639.84 682.667h-426.188c-23.832 0-42.986-19.245-42.986-42.986v-554.028c0-23.832 19.245-42.986 42.986-42.986h554.028c23.832 0 42.986 19.245 42.986 42.986v298.347h-42.667v-298.667h-555.055v554.667h299.055v42.667h127.84zM734.65 694.957l-392.002-392.002 90.51-90.51 392.002 392.002c16.802 16.802 16.883 43.87 0.238 60.515l-30.233 30.233c-16.783 16.783-43.738 16.538-60.515-0.238zM765.027 664.994l30.17-30.17-392.209-392.209-30.17 30.17 392.209 392.209zM342.648 302.955l-16.205-105.891 105.891 16.205-89.686 89.686zM372.818 272.785l30.17-30.17-35.621-5.451 5.451 35.621z" />
<glyph unicode="&#xe902;" glyph-name="ic_column_like" d="M372.32 539.296c-18.867-13.003-30.987-35.023-30.987-61.597v-1.294c-2.845-23.727-1.468-50.152 0-66.884v-197.906c0-47.221 37.86-88.633 84.564-92.878l264.124-24.009c46.116-4.192 94.259 29.145 106.219 74.579l69.004 262.135c11.885 45.148-16.502 84.414-63.572 87.065 0 0-58.2 3.046-180.651 10.885-19.301 1.236-39.587 2.988-59.488 4.968 17.239 65.949 34.755 151.905 10.385 195.85-30.723 55.402-80.306 33.532-80.306 33.532s-24.483-7.81-24.483-73.707c0-48.137-58.649-106.902-94.81-150.74v0zM170.667 513.904c0 23.456 18.887 42.47 42.622 42.47h42.756c23.54 0 42.622-19.442 42.622-42.47v-341.726c0-23.456-18.887-42.47-42.622-42.47h-42.756c-23.54 0-42.622 19.442-42.622 42.47v341.726z" />
<glyph unicode="&#xe903;" glyph-name="ic_column_more" d="M677.651 592.773v0 0c-28.515 28.429-64.304 49.567-104.332 60.379l-21.26 69.477c-13.139 1.767-26.55 2.679-40.173 2.679-13.454 0-26.7-0.89-39.682-2.613l-21.253-69.454c-40.135-10.778-76.021-31.933-104.606-60.412l-70.875 16.344c-16.22-20.977-29.71-44.172-39.937-69.053l49.596-53.212c-5.105-19.249-7.826-39.468-7.826-60.323 0-20.916 2.736-41.193 7.871-60.492l-49.547-53.16c10.262-24.905 23.793-48.117 40.060-69.104l70.837 16.335c28.538-28.372 64.332-49.453 104.355-60.215l21.221-69.349c13.016-1.733 26.297-2.627 39.787-2.627 13.66 0 27.105 0.917 40.278 2.693l21.228 69.372c39.916 10.796 75.613 31.86 104.082 60.183l70.683-16.3c16.311 21.061 29.868 44.361 40.132 69.362l-49.457 53.062c5.091 19.224 7.804 39.415 7.804 60.24 0 20.764-2.697 40.897-7.759 60.070l49.505 53.114c-10.23 24.977-23.746 48.26-40.010 69.311l-70.721-16.309zM668.064 634.349v0l97.359 22.452 16.713-21.633c18.712-24.22 34.111-50.859 45.73-79.225l10.354-25.279-68.131-73.098-31.212 29.091 41.253 10.892c6.070-22.989 9.173-46.79 9.173-70.962 0-24.243-3.121-48.112-9.226-71.163l-41.245 10.923 31.212 29.091 68.099-73.064-10.384-25.294c-11.657-28.394-27.103-55.053-45.869-79.283l-16.717-21.585-97.287 22.435 9.588 41.576 30.092-30.247c-34.078-33.903-76.421-58.515-123.034-71.122l-11.14 41.187 40.799-12.485-29.229-95.519-27.098-3.653c-15.161-2.044-30.512-3.075-45.978-3.075-15.275 0-30.438 1.006-45.417 3l-27.154 3.615-29.236 95.543 40.799 12.485-11.079-41.203c-46.735 12.567-89.195 37.196-123.358 71.161l30.082 30.258 9.588-41.576-97.429-22.468-16.718 21.569c-18.714 24.144-34.131 50.701-45.786 78.987l-10.431 25.316 68.216 73.189 31.212-29.091-41.232-10.969c-6.157 23.143-9.305 47.114-9.305 71.462 0 24.277 3.13 48.18 9.252 71.261l41.241-10.938-31.212-29.091-68.248 73.223 10.401 25.301c11.616 28.258 26.986 54.796 45.647 78.93l16.715 21.617 97.501-22.484-9.588-41.576-30.114 30.226c34.219 34.092 76.788 58.807 123.653 71.393l11.066-41.207-40.799 12.485 29.272 95.658 27.166 3.606c14.94 1.983 30.063 2.984 45.297 2.984 15.426 0 30.736-1.026 45.858-3.059l27.11-3.645 29.264-95.634-40.799-12.485 11.126 41.19c46.744-12.627 89.197-37.324 123.33-71.354l-30.124-30.215-9.588 41.576zM597.222 426.642c0 47.128-38.205 85.333-85.333 85.333s-85.333-38.205-85.333-85.333c0-47.128 38.205-85.333 85.333-85.333s85.333 38.205 85.333 85.333v0 0zM639.889 426.642v0c0-70.692-57.308-128-128-128s-128 57.308-128 128c0 70.692 57.308 128 128 128s128-57.308 128-128v0z" />
<glyph unicode="&#xe904;" glyph-name="ic_column_reply" d="M283.991 461.722l102.681-102.681c9.405-9.405 9.105-23.992-0.077-33.174-8.913-8.913-24.035-9.216-33.174-0.077l-133.156 133.156c-5.734 5.734-7.861 13.395-6.566 20.583-1.295 7.188 0.832 14.848 6.566 20.583l133.156 133.156c9.14 9.14 24.261 8.837 33.174-0.077 9.182-9.182 9.482-23.769 0.077-33.174l-91.271-91.271h327.060c103.943 0 188.206-84.069 188.206-188.553 0 0 0-93.435-0.001-93.588 0 0-47.023 0.052-47.023 0.078v93.891c0 78.184-63.282 141.149-141.343 141.149h-338.308z" />
<glyph unicode="&#xe905;" glyph-name="ic_column_share" d="M256.319 640c-23.832 0-42.986-19.233-42.986-42.959v-468.749c0-23.761 19.245-42.959 42.986-42.959h554.028c23.832 0 42.986 19.233 42.986 42.959v468.749c0 23.761-19.245 42.959-42.986 42.959h-170.347v-42.667h170.667v-469.333h-554.667v469.333h170.667v42.667h-170.347zM637.642 696.042c10.512-6.069 23.282-2.413 29.174 7.79 5.719 9.905 2.381 23.259-7.84 29.16l-115.020 74.729c-3.5 2.021-7.25 2.963-10.914 2.945-3.663 0.018-7.414-0.924-10.914-2.945l-118.726-74.729c-10.221-5.901-13.559-19.255-7.84-29.16 5.891-10.204 18.662-13.859 29.174-7.79l87.266 56.565v-390.321c0-11.063 9.551-20.952 21.333-20.952 11.437 0 21.333 9.381 21.333 20.952v389.984l82.975-56.228z" />
<glyph unicode="&#xe906;" glyph-name="ic_comment_like" d="M582.75 526.722l218.922-14.621c47.070-2.651 75.457-41.917 63.572-87.065l-69.004-262.135c-11.96-45.434-60.104-78.771-106.219-74.579l-264.124 24.009c-46.703 4.245-84.564 45.657-84.564 92.878v197.906c-1.468 16.732 0 42.328 0 68.178 0 26.573 19.716 50.462 39.052 70.213s83.885 199.799 111.227 215.831c27.342 16.032 70.799 20.638 101.522-34.764 19.45-35.074 12.219-96.908-0.257-153.973-1.954 0.189-10.128-41.878-10.128-41.878zM384 471.292v0c0-7.603-0.094-14.119-0.335-26.291-0.452-22.857-0.452-31.050 0.335-41.888v-197.906c0-25.111 20.99-48.135 45.759-50.387l264.124-24.009c25.595-2.327 54.496 17.878 61.096 42.949l69.004 262.135c5.037 19.133-4.676 32.476-24.401 33.588-4.766 0.234-15.656 0.826-34.195 1.908-30.775 1.797-72.227 4.346-125.876 7.781-18.778 1.202-39.212 2.924-60.988 5.091l-49.68 4.945 12.626 48.302c21.455 82.077 27.292 141.032 14.351 164.368-14.207 25.619-26.411 28.158-42.627 18.65 3.454 2.025 3.489 2.063 2.663 0.897-2.657-3.747-6.056-9.379-10.002-16.647-7.502-13.816-16.335-32.248-27.531-57.113-2.216-4.922-4.536-10.119-7.079-15.852-3.46-7.801-15.015-34.051-15.886-36.022-6.174-13.979-10.703-24.074-14.878-33.094-12.728-27.495-20.246-41.482-29.607-51.043-18.661-19.062-26.874-32.213-26.874-40.365zM170.667 507.498c0 23.456 18.887 42.47 42.622 42.47h42.756c23.54 0 42.622-19.442 42.622-42.47v-341.726c0-23.456-18.887-42.47-42.622-42.47h-42.756c-23.54 0-42.622 19.442-42.622 42.47v341.726zM213.333 507.498v0-341.726c0 0.356 0.159 0.196-0.045 0.196h42.756c0.107 0-0.045-0.152-0.045-0.196v341.726c0-0.356-0.159-0.196 0.045-0.196h-42.756c-0.107 0 0.045 0.152 0.045 0.196v0z" />
<glyph unicode="&#xe907;" glyph-name="ic_help" d="M512 42.667c-212.077 0-384 171.923-384 384s171.923 384 384 384c212.077 0 384-171.923 384-384s-171.923-384-384-384zM512 85.334c188.513 0 341.333 152.82 341.333 341.333s-152.82 341.333-341.333 341.333c-188.513 0-341.333-152.82-341.333-341.333s152.82-341.333 341.333-341.333zM503.014 624.025c-40.618 0-72.21-12.411-94.775-37.233-22.565-23.694-33.284-55.285-33.284-94.775h44.567c0 27.643 6.206 49.080 18.617 64.876 13.539 18.617 34.412 27.643 62.619 27.643 23.694 0 42.31-6.206 55.285-19.745 12.411-12.411 19.181-29.899 19.181-52.465 0-15.796-5.641-30.463-16.924-44.567-3.385-4.513-10.154-11.283-19.181-20.309-30.463-27.079-49.080-48.516-56.978-65.44-6.77-14.103-10.154-30.463-10.154-49.080v-12.975h45.131v12.975c0 15.232 3.385 28.771 10.719 41.182 5.641 10.154 14.103 20.309 26.514 31.028 24.822 22.001 40.054 36.669 45.695 43.439 14.103 18.617 21.437 40.618 21.437 66.004 0 33.848-10.719 60.363-31.592 79.543-22.001 20.309-50.772 29.899-86.877 29.899v0zM494.552 280.466c-9.59 0-17.488-2.821-24.258-9.59-6.77-6.206-9.59-14.103-9.59-23.694s2.821-17.488 9.59-24.258c6.77-6.206 14.668-9.59 24.258-9.59s17.488 3.385 24.258 9.59c6.77 6.206 10.154 14.103 10.154 24.258 0 9.59-3.385 17.488-9.59 23.694-6.77 6.77-15.232 9.59-24.822 9.59v0z" />
<glyph unicode="&#xe908;" glyph-name="ic_like_more" d="M277.333 384c35.346 0 64 28.654 64 64s-28.654 64-64 64c-35.346 0-64-28.654-64-64s28.654-64 64-64zM533.333 384c35.346 0 64 28.654 64 64s-28.654 64-64 64c-35.346 0-64-28.654-64-64s28.654-64 64-64zM789.333 384c35.346 0 64 28.654 64 64s-28.654 64-64 64c-35.346 0-64-28.654-64-64s28.654-64 64-64z" />
<glyph unicode="&#xe909;" glyph-name="ic_nav_more" d="M896 298.667v0c-70.692 0-128 57.308-128 128s57.308 128 128 128c70.692 0 128-57.308 128-128s-57.308-128-128-128zM896 341.334c47.128 0 85.333 38.205 85.333 85.333s-38.205 85.333-85.333 85.333c-47.128 0-85.333-38.205-85.333-85.333s38.205-85.333 85.333-85.333v0zM512 298.667v0c-70.692 0-128 57.308-128 128s57.308 128 128 128c70.692 0 128-57.308 128-128s-57.308-128-128-128zM512 341.334c47.128 0 85.333 38.205 85.333 85.333s-38.205 85.333-85.333 85.333c-47.128 0-85.333-38.205-85.333-85.333s38.205-85.333 85.333-85.333v0zM128 298.667v0c-70.692 0-128 57.308-128 128s57.308 128 128 128c70.692 0 128-57.308 128-128s-57.308-128-128-128zM128 341.334c47.128 0 85.333 38.205 85.333 85.333s-38.205 85.333-85.333 85.333c-47.128 0-85.333-38.205-85.333-85.333s38.205-85.333 85.333-85.333v0z" />
<glyph unicode="&#xe90a;" glyph-name="ic_nav_new" d="M853.333 341.334v512.35c0 22.891-19.003 42.317-42.444 42.317h-725.78c-23.204 0-42.444-18.946-42.444-42.317v-768.699c0-22.891 19.003-42.317 42.444-42.317h469.556v42.667h-469.333v768h725.333v-512h42.667zM853.333 85.334v106.521c0 11.542-9.551 21.479-21.333 21.479-11.437 0-21.333-9.617-21.333-21.479v-106.521h-106.521c-11.542 0-21.479-9.551-21.479-21.333 0-11.437 9.617-21.333 21.479-21.333h106.521v-106.521c0-11.542 9.551-21.479 21.333-21.479 11.437 0 21.333 9.617 21.333 21.479v106.521h106.521c11.542 0 21.479 9.551 21.479 21.333 0 11.437-9.617 21.333-21.479 21.333h-106.521zM213.333 362.667c0 11.782 9.803 21.333 21.386 21.333h426.562c11.811 0 21.386-9.896 21.386-21.333v0c0-11.782-9.803-21.333-21.386-21.333h-426.562c-11.811 0-21.386 9.896-21.386 21.333v0zM213.333 533.334c0 11.782 9.803 21.333 21.386 21.333h426.562c11.811 0 21.386-9.896 21.386-21.333v0c0-11.782-9.803-21.333-21.386-21.333h-426.562c-11.811 0-21.386 9.896-21.386 21.333v0zM213.333 704c0 11.782 9.803 21.333 21.386 21.333h426.562c11.811 0 21.386-9.896 21.386-21.333v0c0-11.782-9.803-21.333-21.386-21.333h-426.562c-11.811 0-21.386 9.896-21.386 21.333v0z" />
<glyph unicode="&#xe90b;" glyph-name="ic_phot_camera_alt" d="M377.905 725.334h268.19l73.143-85.822h103.619c34.743-11.011 73.143-49.411 73.143-99.097v-380.758c0-35.923-38.4-74.323-73.143-74.323h-597.333c-59.124 0-97.524 38.4-97.524 74.323v380.758c0 49.686 38.4 88.086 97.524 99.097h79.238l73.143 85.822zM322.255 596.307l-88.92 0.721c-40.527-7.547-62.669-29.946-62.669-57.151v-380.22c0-13.686 21.669-31.656 54.857-31.656h597.333c11.279 0 30.476 19.401 30.476 31.656v380.22c0 25.706-17.88 56.43-41.383 56.43s-110.586 0-110.586 0l-73.289 86.36h-231.685l-74.135-86.36zM512 256v0c70.692 0 128 57.308 128 128s-57.308 128-128 128c-70.692 0-128-57.308-128-128s57.308-128 128-128v0zM512 213.334v0c-94.257 0-170.667 76.41-170.667 170.667s76.41 170.667 170.667 170.667c94.257 0 170.667-76.41 170.667-170.667s-76.41-170.667-170.667-170.667v0z" />
<glyph unicode="&#xe90c;" glyph-name="ic_phot_delete" d="M298.667 638.46v-510.46h426.667v510.46h42.667v-510.642c0-23.464-19.446-42.484-42.772-42.484h-426.456c-23.622 0-42.772 19.040-42.772 42.484v510.642h42.667zM384 725.334v-42.667h256v42.667c0 23.728-18.926 42.667-42.273 42.667h-171.454c-23.032 0-42.273-19.103-42.273-42.667zM213.333 661.334c0 11.782 9.383 21.333 21.259 21.333h554.815c11.741 0 21.259-9.896 21.259-21.333 0-11.782-9.383-21.333-21.259-21.333h-554.815c-11.741 0-21.259 9.896-21.259 21.333zM426.667 725.334h170.667v-42.667h-170.667v42.667zM384 533.315c0 11.792 9.896 21.352 21.333 21.352v0c11.782 0 21.333-9.847 21.333-21.352v-298.629c0-11.792-9.896-21.352-21.333-21.352v0c-11.782 0-21.333 9.847-21.333 21.352v298.629zM597.333 533.315c0 11.792 9.896 21.352 21.333 21.352v0c11.782 0 21.333-9.847 21.333-21.352v-298.629c0-11.792-9.896-21.352-21.333-21.352v0c-11.782 0-21.333 9.847-21.333 21.352v298.629z" />
<glyph unicode="&#xe90d;" glyph-name="ic_phot_full_screen1" d="M768 655.232v-185.899h42.667v256h-256v-42.667h180.469l-180.292-183 30.17-30.17 182.987 185.736zM256 197.725v186.275h-42.667v-256h256v42.667h-180.039l182.242 181.51-30.17 30.17-185.367-184.622z" />
<glyph unicode="&#xe90e;" glyph-name="ic_phot_full_screen2" d="M597.333 539.059v186.275h-42.667v-256h256v42.667h-180.039l182.242 181.51-30.17 30.17-185.367-184.622zM426.667 313.899v-185.899h42.667v256h-256v-42.667h180.469l-180.292-183 30.17-30.17 182.987 185.736z" />
<glyph unicode="&#xe90f;" glyph-name="ic_radio_button_off" d="M512 170.667v0c141.385 0 256 114.615 256 256s-114.615 256-256 256c-141.385 0-256-114.615-256-256s114.615-256 256-256v0zM512 128v0c-164.949 0-298.667 133.718-298.667 298.667s133.718 298.667 298.667 298.667c164.949 0 298.667-133.718 298.667-298.667s-133.718-298.667-298.667-298.667v0z" />
<glyph unicode="&#xe910;" glyph-name="ic_radio_button_on" d="M512 170.667v0c141.385 0 256 114.615 256 256s-114.615 256-256 256c-141.385 0-256-114.615-256-256s114.615-256 256-256v0zM512 128v0c-164.949 0-298.667 133.718-298.667 298.667s133.718 298.667 298.667 298.667c164.949 0 298.667-133.718 298.667-298.667s-133.718-298.667-298.667-298.667v0zM682.667 426.667c0-94.257-76.41-170.667-170.667-170.667s-170.667 76.41-170.667 170.667c0 94.257 76.41 170.667 170.667 170.667s170.667-76.41 170.667-170.667z" />
<glyph unicode="&#xe911;" glyph-name="ic_refresh" d="M350.926 175.083c115.607-74.173 271.161-60.708 372.264 40.395s114.568 256.657 40.395 372.264l-31.013-31.013c57.98-98.17 44.796-226.733-39.552-311.081s-212.911-97.532-311.081-39.552l-31.013-31.013zM260.416 265.593c-74.173 115.607-60.708 271.161 40.395 372.264s256.657 114.568 372.264 40.395l-31.013-31.013c-98.17 57.98-226.733 44.796-311.081-39.552s-97.532-212.911-39.552-311.081l-31.013-31.013z" />
<glyph unicode="&#xe912;" glyph-name="ic_search" d="M697.95 277.135l137.117-137.117c10.088-10.088 9.82-26.713 0.058-36.476-10.057-10.057-26.271-10.148-36.476 0.058l-137.117 137.117c-51.943-43.714-118.995-70.050-192.198-70.050-164.949 0-298.667 133.718-298.667 298.667s133.718 298.667 298.667 298.667c164.949 0 298.667-133.718 298.667-298.667 0-73.203-26.336-140.255-70.050-192.198v0zM469.333 213.334c141.385 0 256 114.615 256 256s-114.615 256-256 256c-141.385 0-256-114.615-256-256s114.615-256 256-256z" />
<glyph unicode="&#xe913;" glyph-name="ic_share_sina" d="M904.282 472.185c-23.369-54.613-62.537-11.719-62.537-11.719 22.272 285.468-212.736 240.299-212.736 240.299-33.573 40.505-1.097 64.967-1.097 64.967 330.13 32.427 276.37-293.547 276.37-293.547v0zM730.824 495.737c7.68 120.718-89.527 98.645-89.527 98.645-26.88 29.013-3.401 51.086-3.401 51.086 182.455 20.935 144.384-144.953 144.384-144.953-24.686-38.343-51.456-4.779-51.456-4.779v0zM685.402 534.649c0 0 27.648-61.781-7.131-100.58 0 0 109.056 3.755 109.056-103.083 0-106.724-153.381-244.508-348.123-244.508-194.853 0-299.959 79.417-321.243 117.76 0 0-129.902 170.667 128.695 392.192 0 0 172.471 146.546 240.823 50.404 0 0 12.507-71.339-4.169-106.155 0.11 0.114 139.118 74.411 202.094-6.030zM423.734 460.353c-248.613-8.761-245.87-176.697-245.87-176.697 0.768-14.791 3.621-140.971 218.331-140.971 223.488 0 240.933 157.924 240.933 157.924s8.667 167.481-213.394 159.744zM392.136 169.878c-122.88 0-124.306 98.076-124.306 98.076s-2.194 137.899 142.19 135.168c127.488-2.276 119.808-120.149 119.808-120.149s-0.987-113.095-137.691-113.095zM362.294 304.363c-25.125 0-45.422-16.953-45.422-37.888s20.407-37.888 45.422-37.888c25.125 0 45.312 16.953 45.312 37.888s-20.297 37.888-45.312 37.888z" />
<glyph unicode="&#xe914;" glyph-name="ic_share_wechat" d="M229.948 258.408c-37.407 47.916-59.281 105.852-59.281 168.259 0 164.949 152.82 298.667 341.333 298.667s341.333-133.718 341.333-298.667c0-164.949-152.82-298.667-341.333-298.667-62.006 0-120.15 14.467-170.264 39.753-18.678-7.753-163.418-68.987-163.418-68.987s42.271 131.68 51.63 159.642zM426.667 469.334c23.564 0 42.667 19.103 42.667 42.667s-19.103 42.667-42.667 42.667c-23.564 0-42.667-19.103-42.667-42.667s19.103-42.667 42.667-42.667zM640 469.334c23.564 0 42.667 19.103 42.667 42.667s-19.103 42.667-42.667 42.667c-23.564 0-42.667-19.103-42.667-42.667s19.103-42.667 42.667-42.667z" />
<glyph unicode="&#xe915;" glyph-name="ic_unfold" d="M532.181 301.028c5.812-0.29 11.752 1.721 16.17 6.139l211.163 211.163c8.135 8.135 8.344 21.852 0.013 30.183-8.088 8.088-21.845 8.325-30.183-0.013l-197.163-197.163-197.163 197.163c-8.338 8.338-22.096 8.101-30.183 0.013-8.331-8.331-8.122-22.048 0.013-30.183l211.163-211.163c4.418-4.418 10.358-6.429 16.17-6.139z" />
<glyph unicode="&#xe916;" glyph-name="ic_zhihu_logo" d="M552.628 383.74c0 0-5.010 85.297-31.221 85.297h-182.722c6.086 96.568 10.475 178.614 10.475 256.567h178.676c0 0 8 85.25-28.83 84.325h-309.073c12.172 46.758 25.389 78.827 43.715 128.737 0 0-84.060 0-112.707-76.93-11.833-31.763-46.13-153.765-107.2-278.429 20.584 2.246 88.599 4.158 128.66 79.14 7.375 20.931 12.24 36.012 18.919 63.157h100.793c0-37.4-6.979-233.115-8.675-256.567h-182.607c-40.996 0-49.642-85.297-49.642-85.297h229.070c-15.318-177.674-100.654-342.875-250.26-461.299 71.556-20.826 142.872 3.334 178.114 35.312 0 0 80.261 74.432 124.259 246.831l188.469-231.467c0 0 27.644 95.831-4.332 142.519-26.469 31.809-97.985 117.827-128.477 149.028l-51.081-41.377c15.243 49.811 27.287 113.701 30.364 160.453h215.311zM597.333 810.667v-768h80.042l26.927-94.293 146.723 94.293h172.974v768h-426.667zM936.948 128h-97.561l-97.435-62.293-16.619 62.293h-42.703v597.333h256.036l-1.718-597.333z" />
<glyph unicode="&#xe917;" glyph-name="ic_column_report" d="M653.464 768v0l199.87-199.87v-282.927l-199.87-199.87h-282.927l-199.87 199.87v282.927l199.87 199.87h282.927zM389.512 725.334l-175.382-175.216-0.653-246.53 176.365-175.231h246.142l174.357 173.309 0.325 248.001-174.682 174.682-246.473 0.985zM512 213.334c-23.631 0-42.667 19.036-42.667 42.667s19.036 42.667 42.667 42.667c23.631 0 42.667-19.036 42.667-42.667s-19.036-42.667-42.667-42.667v0zM489.648 384v256h46.807v-256h-46.807z" />
<glyph unicode="&#xe918;" glyph-name="ic_review_add" d="M590.222-13.133v-23.044c-25.439-4.268-51.571-6.489-78.222-6.489-13.171 0-26.215 0.543-39.111 1.606v0 22.532c12.553-1.057 25.254-1.596 38.080-1.596 27.045 0 53.529 2.397 79.253 6.991zM253.028 61.577l-10.925-18.923c31.876-22.444 66.671-41.021 103.704-55.046v0l11.218 19.43c-37.23 13.628-72.145 32.058-103.997 54.539zM101.492 246.112l-18.281-10.555c16.105-36.079 36.63-69.753 60.886-100.332v0l18.707 10.801c-24.575 30.339-45.265 63.953-61.312 100.086zM66.821 485.334h-20.523c-2.397-19.219-3.631-38.799-3.631-58.667s1.235-39.448 3.631-58.667v0h20.793c-2.602 19.529-3.944 39.457-3.944 59.698 0 19.529 1.25 38.766 3.675 57.636zM161.669 707.964l-17.572 10.145c-24.257-30.579-44.781-64.253-60.886-100.332v0l17.556-10.136c15.902 36.199 36.455 69.892 60.903 100.322zM356.043 847.998l-10.236 17.729c-37.033-14.025-71.829-32.601-103.704-55.046v0l10.080-17.459c31.799 22.554 66.669 41.063 103.86 54.776zM590.222 868.529v20.982c-25.439 4.268-51.571 6.489-78.222 6.489-13.171 0-26.215-0.543-39.111-1.606v0-20.47c12.553 1.057 25.254 1.596 38.080 1.596 27.045 0 53.529-2.397 79.253-6.991zM798.243 771.25l10.84 18.775c-30.229 24.745-63.602 45.792-99.429 62.45v0l-10.549-18.272c35.871-16.629 69.171-37.867 99.139-62.953zM929.079 588.435l19.362 11.178c-14.585 36.776-33.684 71.27-56.613 102.799v0l-18.933-10.931c22.987-31.486 41.966-66.085 56.184-103.047zM954.847 368h22.856c2.397 19.219 3.631 38.799 3.631 58.667s-1.235 39.448-3.631 58.667h-22.586c2.424-18.869 3.675-38.107 3.675-57.636 0-20.241-1.343-40.168-3.944-59.698zM871.833 162.465l19.995-11.544c22.929 31.529 42.028 66.024 56.613 102.799v0l-20.014 11.555c-14.365-36.895-33.48-71.415-56.594-102.81zM698.164 20.759l11.489-19.9c35.827 16.658 69.2 37.705 99.429 62.45l-11.643 20.166c-30.022-25.012-63.367-46.171-99.275-62.717zM522.667 416h138.667v21.333h-138.667v138.667h-21.333v-138.667h-138.667v-21.333h138.667v-138.667h21.333v138.667z" />
<glyph unicode="&#xe919;" glyph-name="ic_nav_review" d="M85.333 362.667c0 11.782 9.847 21.333 21.352 21.333h298.629c11.792 0 21.352-9.896 21.352-21.333v0c0-11.782-9.847-21.333-21.352-21.333h-298.629c-11.792 0-21.352 9.896-21.352 21.333v0zM85.333 576c0 11.782 9.627 21.333 21.066 21.333h512.534c11.635 0 21.066-9.896 21.066-21.333v0c0-11.782-9.627-21.333-21.066-21.333h-512.534c-11.635 0-21.066 9.896-21.066 21.333v0zM823.844 127.32c-32.846-26.275-74.51-41.986-119.844-41.986-106.039 0-192 85.961-192 192s85.961 192 192 192c106.039 0 192-85.961 192-192 0-45.334-15.711-86.998-41.986-119.844l84.51-84.51c8.41-8.41 8.231-22.226 0.143-30.313-8.331-8.331-21.81-8.36-30.313 0.143l-84.51 84.51zM85.333 789.334c0 11.782 9.71 21.333 21.342 21.333h725.315c11.787 0 21.342-9.896 21.342-21.333 0-11.782-9.71-21.333-21.342-21.333h-725.315c-11.787 0-21.342 9.896-21.342 21.333zM704 128c82.475 0 149.333 66.859 149.333 149.333s-66.859 149.333-149.333 149.333c-82.475 0-149.333-66.859-149.333-149.333s66.859-149.333 149.333-149.333z" />
<glyph unicode="&#xe91a;" glyph-name="ic_loading" d="M740.84 836.527c-67.7 37.881-145.749 59.474-228.84 59.474-259.206 0-469.333-210.128-469.333-469.333s210.128-469.333 469.333-469.333c259.206 0 469.333 210.128 469.333 469.333 0 83.092-21.593 161.14-59.474 228.84l-31.483-31.483c30.847-59.018 48.29-126.151 48.29-197.358 0-235.641-191.025-426.667-426.667-426.667s-426.667 191.025-426.667 426.667c0 235.641 191.025 426.667 426.667 426.667 71.207 0 138.339-17.443 197.358-48.29l31.483 31.483z" />
<glyph unicode="&#xe91b;" glyph-name="ic_column_end" d="M0 512l1024 341.333v-170.667l-1024-341.333v170.667zM0 170.667l1024 341.333v-170.667l-1024-341.333v170.667z" />
<glyph unicode="&#xe91c;" glyph-name="ic_edit_editlink" d="M225.52 282.2l482.593 482.593c16.657 16.657 43.537 16.785 60.613-0.292l59.774-59.774c16.818-16.818 16.739-44.166 0.294-60.611l-482.552-482.552-119.718-1.316-1.005 121.952z" />
<glyph unicode="&#xe91d;" glyph-name="ic_edit_link" d="M421.49 456.837c-49.832 49.821-131.058 49.961-181.070-0.050l-60.239-60.239c-50.162-50.162-50.033-131.087-0.040-181.080l120.66-120.66c49.831-49.831 131.065-49.975 181.080 0.040l60.239 60.239c50.158 50.158 50.033 131.076 0.050 181.070l-60.34-60.34 0.278-0.278c16.509-16.509 16.516-43.268-0.561-60.344l-59.774-59.774c-16.818-16.818-44.058-16.847-60.344-0.561l-121.236 121.236c-16.509 16.509-16.516 43.268 0.561 60.344l59.774 59.774c16.818 16.818 44.058 16.847 60.344 0.561l0.278-0.278 60.34 60.34zM602.51 396.497c49.832-49.821 131.058-49.961 181.070 0.050l60.239 60.239c50.162 50.162 50.033 131.087 0.040 181.080l-120.66 120.66c-49.831 49.831-131.065 49.975-181.080-0.040l-60.239-60.239c-50.158-50.158-50.033-131.076-0.050-181.070l60.34 60.34-0.278 0.278c-16.509 16.509-16.516 43.268 0.561 60.344l59.774 59.774c16.818 16.818 44.058 16.847 60.344 0.561l121.236-121.236c16.509-16.509 16.516-43.268-0.561-60.344l-59.774-59.774c-16.818-16.818-44.058-16.847-60.344-0.561l-0.278 0.278-60.34-60.34zM572.429 547.436c16.613 16.613 43.472 16.689 60.25-0.090 16.662-16.662 16.502-43.838 0.090-60.25l-181.199-181.199c-16.613-16.613-43.472-16.689-60.25 0.090-16.662 16.662-16.502 43.838-0.090 60.25l181.199 181.199z" />
<glyph unicode="&#xe91e;" glyph-name="ic_edit_showlink" d="M512 725.334c-193.939 0-359.564-115.001-426.667-277.333 67.103-162.332 232.727-277.333 426.667-277.333s359.564 115.001 426.667 277.333c-67.103 162.332-232.727 277.333-426.667 277.333v0 0zM512 256c-105.984 0-192 86.016-192 192s86.016 192 192 192c105.984 0 192-86.016 192-192s-86.016-192-192-192v0 0zM512 533.334c-47.218 0-85.333-38.116-85.333-85.333s38.116-85.333 85.333-85.333c47.218 0 85.333 38.116 85.333 85.333s-38.116 85.333-85.333 85.333v0 0z" />
<glyph unicode="&#xe91f;" glyph-name="ic_edit_t" d="M636.742 128c-28.691 3.416-53.441 8.316-62.259 15.108-12.847 9.896-19.271 35.503-19.271 76.823v460.5l62.119 0.632c61.806 0 108.885-14.318 121.615-25.781s35.156-11.587 47.656-68.531h25.521v181.25h-598.79v-181.25h26.042c10.764 57.292 34.021 58.016 48.177 68.792s61.545 25.521 120.573 25.521l61.186 4.242v-448c0-46.181-5.556-75-16.667-86.458-8.452-8.716-27.797-17.576-56.44-22.846h-97.538v-42.667h426.667v42.667h-88.591z" />
<glyph unicode="&#xe920;" glyph-name="ic_prompt_done" d="M512-0c-235.641 0-426.667 191.025-426.667 426.667s191.025 426.667 426.667 426.667c235.641 0 426.667-191.025 426.667-426.667s-191.025-426.667-426.667-426.667zM512 42.667c212.077 0 384 171.923 384 384s-171.923 384-384 384c-212.077 0-384-171.923-384-384s171.923-384 384-384zM492.252 289.367c1.551 0.91 3.013 2.029 4.342 3.358l240.776 240.776c8.665 8.665 8.623 22.13 0.292 30.462-8.088 8.088-21.969 8.201-30.462-0.292l-233.303-233.303-105.664 105.664c-8.534 8.534-21.769 8.262-30.1-0.069-8.088-8.088-8.362-21.808-0.069-30.1l120.818-120.818c8.534-8.534 21.769-8.262 30.1 0.069 1.29 1.29 2.381 2.722 3.27 4.254z" />
<glyph unicode="&#xe921;" glyph-name="ic_prompt_error" d="M512-0c-235.641 0-426.667 191.025-426.667 426.667s191.025 426.667 426.667 426.667c235.641 0 426.667-191.025 426.667-426.667s-191.025-426.667-426.667-426.667zM512 42.667c212.077 0 384 171.923 384 384s-171.923 384-384 384c-212.077 0-384-171.923-384-384s171.923-384 384-384zM545.522 426.667l117.438 117.438c9.193 9.193 9.146 24.155-0.111 33.411-8.986 8.986-24.216 9.306-33.411 0.111l-117.438-117.438-117.438 117.438c-9.193 9.193-24.155 9.146-33.411-0.111-8.986-8.986-9.306-24.216-0.111-33.411l117.438-117.438-117.438-117.438c-9.193-9.193-9.146-24.155 0.111-33.411 8.986-8.986 24.216-9.306 33.411-0.111l117.438 117.438 117.438-117.438c9.193-9.193 24.155-9.146 33.411 0.111 8.986 8.986 9.306 24.216 0.111 33.411l-117.438 117.438z" />
<glyph unicode="&#xe922;" glyph-name="ic_column_play" d="M512-42.666v0c259.206 0 469.333 210.128 469.333 469.333s-210.128 469.333-469.333 469.333c-259.206 0-469.333-210.128-469.333-469.333s210.128-469.333 469.333-469.333v0zM512-85.333v0c-282.77 0-512 229.23-512 512s229.23 512 512 512c282.77 0 512-229.23 512-512s-229.23-512-512-512v0zM450.411 632.783l256-171.469c25.296-16.943 25.215-54.168-0.154-71.002l-256-169.864c-28.36-18.818-66.257 1.516-66.257 35.552v341.333c0 34.12 38.063 54.437 66.411 35.449z" />
<glyph unicode="&#xe923;" glyph-name="ic_column_no_article" d="M597.333-85.333h-170.499v42.667h170.499v-42.667zM811.669-85.333h109.952c9.669 0 17.046 7.575 17.046 16.919v111.081h-42.667v-85.333h-84.331v-42.667zM597.333 938.667h-170.499v-42.667h170.499v42.667zM811.669 938.667h109.952c9.414 0 17.046-7.654 17.046-16.919v-111.081h-42.667v85.333h-84.331v42.667zM213.333-85.333h-110.954c-9.414 0-17.046 7.654-17.046 16.919v111.081h42.667v-85.333h85.333v-42.667zM213.333 938.667h-110.954c-9.669 0-17.046-7.575-17.046-16.919v-111.081h42.667v85.333h85.333v42.667zM938.667 341.334v-128h-42.667v128h42.667zM938.667 512v128h-42.667v-128h42.667zM85.333 341.334v-128h42.667v128h-42.667zM85.333 512v128h42.667v-128h-42.667z" />
<glyph unicode="&#xe924;" glyph-name="ic_no_article" d="M128 879.708v-906.082c0-8.737 7.501-16.292 16.755-16.292h734.49c9.154 0 16.755 7.294 16.755 16.292v906.082c0 8.737-7.501 16.292-16.755 16.292h-734.49c-9.154 0-16.755-7.294-16.755-16.292zM170.667 853.334h682.667v-853.333h-682.667v853.333zM256 341.334h512v-42.667h-512v42.667zM256 512h512v-42.667h-512v42.667zM256 682.667h341.333v-42.667h-341.333v42.667z" />
<glyph unicode="&#xe925;" glyph-name="ic_no_contribute" d="M810.667 460.673v377.476c0 8.483-6.88 15.185-15.366 15.185h-566.602c-8.658 0-15.366-6.799-15.366-15.185v-195.384l-158.956-88.111 0.216-0.39c-6.797-1.555-11.927-7.427-11.927-14.433v-524.995c0-7.823 6.944-14.836 15.509-14.836h907.648c8.493 0 15.509 6.642 15.509 14.836v524.995c0 6.945-5.472 13.252-12.694 14.58l0.135 0.243-158.108 87.64v-44.718l123.49-68.452-123.49-68.452zM749.318 426.667l-229.417-127.168 1.415 2.66-234.165 124.508h462.167zM213.333 465.917l-121.665 64.69 121.665 67.44v-132.13zM482.256 278.632l-396.923-220.018v431.065l396.923-211.048zM938.667 486.907v-444.24h-801.429l801.429 444.24zM256 445.125v365.542h512v-372.149l-17.324-11.851h-464.577l-30.099 18.458z" />
<glyph unicode="&#xe926;" glyph-name="ic_no_drafts" d="M554.667 896v-341.333h341.333v-581.041c0-8.998-7.601-16.292-16.755-16.292h-734.49c-9.254 0-16.755 7.556-16.755 16.292v906.082c0 8.998 7.601 16.292 16.755 16.292h409.912zM512 853.334h-341.333v-853.333h682.667v512h-324.833c-9.113 0-16.5 7.328-16.5 16.5v324.833zM524.8 866.455l30.17 30.17 340.92-340.92-30.17-30.17-340.92 340.92z" />
<glyph unicode="&#xe927;" glyph-name="ic_invite_cancel" d="M341.333 426.667h384v-42.667h-384v42.667z" />
<glyph unicode="&#xe928;" glyph-name="ic_share_dudu" d="M512 42.667c-212.077 0-384 171.923-384 384s171.923 384 384 384c212.077 0 384-171.923 384-384s-171.923-384-384-384zM512 170.667c141.385 0 256 114.615 256 256s-114.615 256-256 256c-141.385 0-256-114.615-256-256s114.615-256 256-256zM512 298.667c70.692 0 128 57.308 128 128s-57.308 128-128 128c-70.692 0-128-57.308-128-128s57.308-128 128-128z" />
<glyph unicode="&#xe929;" glyph-name="ic_lock" d="M298.667 426.772v0-298.876c0 0.099-0.006 0.105 0.106 0.105h426.456c-0.043 0 0.106 0.147 0.106-0.105v298.876c0-0.099 0.006-0.105-0.106-0.105h-426.456c0.043 0-0.106-0.147-0.106 0.105v0zM256 426.772c0 23.506 19.446 42.562 42.772 42.562h426.456c23.622 0 42.772-19.043 42.772-42.562v-298.876c0-23.506-19.446-42.562-42.772-42.562h-426.456c-23.622 0-42.772 19.043-42.772 42.562v298.876zM384 576v-149.333l-42.667 42.667h341.333l-42.667-42.667v149.333c0 58.784-47.968 106.667-107.047 106.667h-41.906c-59.393 0-107.047-47.622-107.047-106.667zM341.333 576c0 82.475 66.623 149.333 149.714 149.333h41.906c82.685 0 149.714-67.027 149.714-149.333v-149.333h-341.333v149.333z" />
<glyph unicode="&#xe92a;" glyph-name="ic_comment" d="M384 237.969c-100.904 41.087-170.667 129.242-170.667 231.364 0 141.385 133.718 256 298.667 256s298.667-114.615 298.667-256c0-141.385-133.718-256-298.667-256l-128-85.333v109.969zM534.272 171.293c178.132 10.039 319.062 139.639 319.062 298.041 0 164.949-152.82 298.667-341.333 298.667s-341.333-133.718-341.333-298.667c0-110.549 68.642-207.070 170.667-258.71v-124.89c0-24.15 15.937-32.442 35.596-19.336l157.343 104.895z" />
<glyph unicode="&#xe92b;" glyph-name="ic_check_button_off" d="M213.333 639.75v-426.167c0-47.309 38.317-85.583 85.583-85.583h426.167c47.309 0 85.583 38.317 85.583 85.583v426.167c0 47.309-38.317 85.583-85.583 85.583h-426.167c-47.309 0-85.583-38.317-85.583-85.583zM256 639.895c0 23.622 19.446 42.772 42.772 42.772h426.456c23.622 0 42.772-19.446 42.772-42.772v-426.456c0-23.622-19.446-42.772-42.772-42.772h-426.456c-23.622 0-42.772 19.446-42.772 42.772v426.456z" />
<glyph unicode="&#xe92c;" glyph-name="ic_check_button_on" d="M213.333 639.75c0 47.266 38.275 85.583 85.583 85.583h426.167c47.266 0 85.583-38.275 85.583-85.583v-426.167c0-47.266-38.275-85.583-85.583-85.583h-426.167c-47.266 0-85.583 38.275-85.583 85.583v426.167zM457.113 362.567l-105.909 105.909-48.272-48.272 120.68-120.68 1.186 1.186 33.501-33.501 290.903 290.903-48.272 48.272-243.817-243.817z" />
<glyph unicode="&#xe92d;" glyph-name="ic_visibility_off" d="M281.821 648.009c-88.655-49.272-158.423-126.126-196.488-218.211 67.103-162.332 232.727-277.333 426.667-277.333 77.536 0 150.547 18.382 214.546 50.82l99.022-99.022 30.17 30.17-633.568 633.568-30.17-30.17 89.821-89.821zM695.931 233.899c-55.366-24.808-117.821-38.768-183.931-38.768-174.545 0-323.607 97.308-384 234.667 35.252 80.178 100.716 146.71 183.824 188.208l88.782-88.782c-23.592-26.411-37.939-61.253-37.939-99.426 0-82.432 66.901-149.333 149.333-149.333 38.173 0 73.016 14.347 99.426 37.939l84.505-84.505zM581.246 348.585c-18.618-15.88-42.789-25.453-69.246-25.453-59.022 0-106.667 47.644-106.667 106.667 0 26.457 9.573 50.628 25.453 69.246l150.459-150.459zM395.097 692.766c37.315 9.373 76.495 14.365 116.903 14.365 193.939 0 359.564-115.001 426.667-277.333-25.899-62.652-66.473-118.255-117.686-162.916l-27.707 27.707c44.588 37.332 79.959 83.424 102.727 135.208-60.393 137.358-209.455 234.667-384 234.667-27.867 0-55.084-2.48-81.394-7.208l-35.509 35.509zM661.299 426.564l-152.533 152.533c119.213 0 157.414-109.198 152.533-152.533z" />
<glyph unicode="&#xe92e;" glyph-name="ic_highlighted" d="M651.697 562.466c0 0-70.063 136.889-88.883 170.442s-45.809 58.405-75.752 0c-23.001-44.863-88.195-170.141-88.195-170.141s-141.277-27.983-180.836-35.8c-39.559-7.816-70.9-19.079-23.485-70.393 36.977-40.017 128.345-142.564 128.345-142.564s-17.562-127.033-24.883-192.851c-7.322-65.818 16.871-64.478 61.401-43.402s165.908 82.459 165.908 82.459c0 0 126.413-63.011 165.152-82.459 50.668-25.437 66.19 0 61.401 43.402-3.807 34.507-23.921 194.228-23.921 194.228s79.426 89.449 127.382 141.188c38.508 41.544 30.029 55.654 1.106 64.502l-173.184-192.341 26.272-212.804-184.586 92.142-184.586-92.142 26.303 213.060-140.384 156.113 200.842 39.536 97.824 188.625 97.824-188.625 57.568-11.332-135.022-149.957-83.693 75.358-28.55-31.708 115.591-103.696 281.515 312.654-31.708 28.55-84.799-94.179c-34.203 6.709-61.969 12.136-61.969 12.136z" />
<glyph unicode="&#xe92f;" glyph-name="ic_conversations" d="M473.293 259.53l-182.391-37.362 28.915 53.246c-88.031 33.74-149.15 107.882-149.15 193.92 0 117.821 114.615 213.333 256 213.333s256-95.513 256-213.333c0-104.551-90.252-191.536-209.374-209.803zM488.721 218.867c135.168 24.482 236.612 127.32 236.612 250.467 0 141.385-133.718 256-298.667 256s-298.667-114.615-298.667-256c0-89.333 53.384-167.979 134.299-213.779l-28.12-60.644c-8.127-17.526 0.629-28.46 19.483-24.581l235.060 48.536zM768.621 459.844c27.986-23.264 45.378-55.838 45.378-91.893 0-55.36-41.002-102.512-98.396-120.361l12.415-46.334-90.399 30.581c-12.733-8.722-26.193-16.67-40.285-23.763 5.367-1.787 10.848-3.366 16.43-4.727l145.281-51.774c12.719-4.533 20.4 2.055 16.985 15.377l-13.832 53.962c56.543 29.698 94.469 84.431 94.469 147.039 0 61.717-36.854 115.782-92.068 145.756 2.714-15.171 4.123-30.721 4.123-46.559 0-2.442-0.033-4.876-0.1-7.304v0z" />
<glyph unicode="&#xe930;" glyph-name="ic_pass" d="M434.568 245.251c6.573-0.114 13.187 2.252 18.151 7.216l333.599 333.599c9.753 9.753 9.761 25.855-0.166 35.782-9.637 9.637-25.947 10.001-35.782 0.166l-316.507-316.507-134.578 134.578c-9.919 9.919-26.021 9.926-35.948-0.001-9.637-9.637-9.927-26.021-0.001-35.948l151.504-151.504c5.406-5.406 12.649-7.868 19.727-7.382v0z" />
<glyph unicode="&#xe931;" glyph-name="ic_wechatpay" d="M365.277 285.923c-4.538-2.32-9.647-3.651-15.069-3.651-12.544 0-23.471 6.997-29.196 17.338l-2.188 4.865-91.427 203.067c-0.989 2.214-1.606 4.7-1.606 7.138 0 9.352 7.494 16.95 16.745 16.95 3.759 0 7.226-1.26 10.019-3.369l107.881-77.74c7.889-5.23 17.303-8.281 27.427-8.281 6.039 0 11.799 1.143 17.175 3.121l507.345 228.58c-90.938 108.495-240.71 179.392-410.205 179.392-277.353 0-502.179-189.651-502.179-423.615 0-127.647 67.642-242.538 173.51-320.196 8.495-6.137 14.057-16.219 14.057-27.598 0-3.757-0.791-7.22-1.769-10.801-8.46-31.932-21.993-83.064-22.633-85.456-1.047-4.005-2.7-8.186-2.7-12.391 0-9.352 7.494-16.938 16.745-16.938 3.631 0 6.598 1.366 9.67 3.157l109.94 64.254c8.273 4.829 17.024 7.821 26.671 7.821 5.132 0 10.089-0.789 14.767-2.238 51.293-14.936 106.624-23.228 163.921-23.228 277.341 0 502.179 189.663 502.179 423.626 0 70.862-20.736 137.601-57.193 196.295l-581.888-340.103z" />
<glyph unicode="&#xe932;" glyph-name="wallet" d="M873.045 679.382h-734.72c-31.744 0-59.904 6.4-59.904 36.096l794.624 36.053v72.277c0 59.733-48.512 72.192-108.373 72.192l-649.045-108.288c-57.856-12.885-72.96-37.376-72.96-72.192v-649.899c0-59.733 48.512-108.288 108.373-108.288h721.92c59.904 0 108.373 48.512 108.373 108.288v505.472c0 59.733-48.469 108.288-108.288 108.288zM836.949 246.144c-39.851 0-72.235 32.341-72.235 72.107 0 39.893 32.427 72.277 72.235 72.277 39.851 0 72.192-32.427 72.192-72.235 0-39.765-32.341-72.107-72.192-72.107z" />
</font>
</defs>
</svg>
