<?xml version="1.0" encoding="UTF-8" standalone="no"?>
<svg width="14px" height="14px" viewBox="0 0 14 14" version="1.1" xmlns="http://www.w3.org/2000/svg" xmlns:xlink="http://www.w3.org/1999/xlink">
    <!-- Generator: Sketch 39.1 (31720) - http://www.bohemiancoding.com/sketch -->
    <title>link</title>
    <desc>Created with Sketch.</desc>
    <defs></defs>
    <g id="Page-1" stroke="none" stroke-width="1" fill="none" fill-rule="evenodd">
        <path d="M13.7651226,3.61826364 L10.3817164,0.234857377 C10.0706532,-0.0762057922 9.56534144,-0.0762057922 9.25427827,0.234857377 L5.87109041,3.61826364 C5.55915224,3.92932681 5.55915224,4.43463856 5.87109041,4.74657673 L6.43437196,5.30985827 L9.81777822,1.92645201 L12.073528,4.18220178 L8.69012173,7.56560804 L9.25427827,8.12976459 C9.56534144,8.44082776 10.0706532,8.44082776 10.3817164,8.12976459 L13.7651226,4.74657673 C14.0761858,4.43463856 14.0761858,3.92932681 13.7651226,3.61826364 L13.7651226,3.61826364 Z M7.56268644,8.69304333 L4.17928018,12.0764496 L1.92353041,9.82069982 L5.30671827,6.43729356 L4.74256173,5.87313701 C4.43149856,5.56207384 3.92618681,5.56207384 3.61512364,5.87313701 L0.231717377,9.25632487 C-0.0793457922,9.56826304 -0.0793457922,10.0735748 0.231717377,10.384638 L3.61512364,13.7680442 C3.92618681,14.0791074 4.43149856,14.0791074 4.74256173,13.7680442 L8.12596799,10.384638 C8.43790616,10.0735748 8.43790616,9.56826304 8.12596799,9.25632487 L7.56268644,8.69304333 L7.56268644,8.69304333 Z M4.74278013,9.25654327 C5.05471829,9.56848144 5.55915504,9.56848144 5.87109321,9.25654327 L9.25449947,5.87335541 C9.56556264,5.56229224 9.56556264,5.05785549 9.25449947,4.74679233 C8.94256131,4.43485416 8.43812456,4.43485416 8.12618639,4.74679233 L4.74278013,8.12998019 C4.43171696,8.44104336 4.43171696,8.94548011 4.74278013,9.25654327 L4.74278013,9.25654327 Z" id="link" fill="#225599"></path>
    </g>
</svg>